<?xml version="1.0" encoding="UTF-8" standalone="no"?>
<!DOCTYPE svg PUBLIC "-//W3C//DTD SVG 1.1//EN" "http://www.w3.org/Graphics/SVG/1.1/DTD/svg11.dtd">
<svg version="1.1" xmlns="http://www.w3.org/2000/svg" xmlns:xlink="http://www.w3.org/1999/xlink" preserveAspectRatio="xMidYMid meet" viewBox="0 0 20 16.32" width="20" height="16.32"><defs><path d="M19.45 0.3C18.66 0.78 17.78 1.12 16.84 1.31C16.1 0.5 15.03 0 13.85 0C11.58 0 9.75 1.85 9.75 4.12C9.75 4.44 9.79 4.76 9.85 5.06C6.44 4.88 3.41 3.25 1.39 0.76C1.04 1.37 0.84 2.08 0.84 2.83C0.84 4.26 1.57 5.51 2.66 6.26C1.99 6.23 1.36 6.06 0.8 5.74C0.8 5.75 0.8 5.78 0.8 5.79C0.8 7.79 2.22 9.45 4.09 9.83C3.75 9.92 3.39 9.97 3.01 9.97C2.75 9.97 2.5 9.95 2.25 9.9C2.76 11.53 4.28 12.73 6.07 12.75C4.67 13.86 2.9 14.52 0.98 14.52C0.65 14.52 0.33 14.5 0 14.47C1.82 15.64 3.98 16.32 6.3 16.32C13.84 16.32 17.97 10.03 17.97 4.6C17.97 4.42 17.97 4.24 17.95 4.07C18.76 3.49 19.45 2.76 20 1.94C19.26 2.27 18.47 2.48 17.64 2.58C18.49 2.08 19.15 1.27 19.45 0.3Z" id="e3KmNiNipY"></path><clipPath id="clipa3iN6J7n3h"><use xlink:href="#e3KmNiNipY" opacity="1"></use></clipPath></defs><g><g><g><use xlink:href="#e3KmNiNipY" opacity="1" fill="#ffffff" fill-opacity="1"></use><g clip-path="url(#clipa3iN6J7n3h)"><use xlink:href="#e3KmNiNipY" opacity="1" fill-opacity="0" stroke="#000000" stroke-width="0.2" stroke-opacity="1"></use></g></g></g></g></svg>